<?xml version="1.0" standalone="no"?>
<!DOCTYPE svg PUBLIC "-//W3C//DTD SVG 20010904//EN"
 "http://www.w3.org/TR/2001/REC-SVG-20010904/DTD/svg10.dtd">
<svg version="1.0" xmlns="http://www.w3.org/2000/svg"
 width="1000.000000pt" height="1000.000000pt" viewBox="0 0 1000.000000 1000.000000"
 preserveAspectRatio="xMidYMid meet">
<metadata>
Created by potrace 1.11, written by Peter Selinger 2001-2013
</metadata>
<g transform="translate(0.000000,1000.000000) scale(0.100000,-0.100000)"
fill="#000000" stroke="none">
<path d="M4 9973 c3 -16 13 -71 21 -123 9 -52 18 -97 20 -100 1 -3 6 -27 10
-55 3 -27 17 -108 30 -180 13 -71 31 -168 39 -215 13 -71 134 -745 152 -845 3
-16 14 -79 25 -140 19 -107 33 -181 44 -238 2 -15 10 -55 15 -90 6 -34 13 -73
16 -87 2 -14 7 -40 10 -59 3 -18 8 -43 10 -55 2 -11 7 -37 10 -56 4 -19 8 -44
10 -55 2 -11 7 -36 10 -55 6 -38 40 -226 49 -275 3 -16 14 -79 25 -140 42
-235 60 -331 64 -355 3 -14 12 -68 21 -120 9 -52 18 -97 20 -100 1 -3 6 -27 9
-55 4 -27 9 -57 11 -65 2 -8 6 -31 9 -50 7 -42 13 -78 26 -145 5 -27 12 -63
15 -80 3 -16 23 -131 45 -255 22 -124 43 -238 45 -255 3 -16 8 -41 10 -55 11
-55 16 -79 30 -160 8 -47 17 -96 20 -110 2 -13 7 -42 11 -65 3 -22 8 -42 11
-45 2 -3 369 -5 814 -5 l810 0 -6 25 c-5 24 -70 393 -80 455 -3 17 -12 66 -20
110 -20 104 -34 184 -39 215 -2 14 -7 36 -10 50 -3 14 -8 41 -11 60 -2 19 -7
46 -10 60 -3 14 -16 88 -30 165 -25 143 -59 332 -70 395 -4 19 -13 71 -21 115
-12 67 -33 184 -48 270 -34 191 -59 329 -66 365 -10 46 -15 73 -25 145 -4 22
-8 47 -10 55 -2 8 -7 31 -10 50 -5 30 -30 168 -40 221 -2 9 -6 32 -9 50 -3 19
-24 135 -46 259 -22 124 -52 288 -66 365 -13 77 -27 151 -29 165 -3 14 -21
115 -40 225 -20 110 -47 259 -60 330 -13 72 -36 198 -50 280 -15 83 -29 159
-31 170 -3 11 -7 41 -11 68 l-6 47 -814 0 -815 0 6 -27z"/>
<path d="M2223 9993 c3 -5 8 -26 11 -48 7 -42 42 -241 51 -285 3 -14 7 -38 10
-55 3 -16 7 -41 10 -55 3 -14 7 -41 10 -60 7 -44 13 -78 20 -110 3 -14 7 -41
11 -60 3 -19 9 -55 14 -80 10 -49 37 -197 45 -245 2 -16 16 -93 30 -170 14
-77 27 -153 30 -170 3 -16 8 -41 10 -55 3 -14 8 -37 10 -53 9 -55 25 -143 30
-167 3 -14 7 -38 10 -55 3 -16 7 -41 10 -55 3 -14 7 -41 10 -60 3 -19 8 -46
10 -60 12 -56 26 -136 39 -215 3 -16 21 -115 40 -220 19 -104 37 -206 41 -225
3 -19 10 -57 15 -85 5 -27 12 -68 16 -90 3 -22 7 -47 10 -56 2 -9 7 -32 9 -50
3 -19 7 -45 10 -59 3 -14 8 -40 11 -59 3 -18 8 -43 10 -55 2 -11 7 -34 9 -51
13 -71 25 -142 30 -165 3 -14 14 -79 26 -144 11 -66 22 -122 23 -125 2 -3 7
-28 10 -54 4 -26 11 -71 17 -100 5 -29 11 -63 14 -77 43 -244 58 -327 80 -445
15 -77 28 -153 30 -168 3 -16 20 -116 40 -222 19 -106 35 -195 35 -197 0 -3
1606 -2 1621 1 4 0 3 18 -2 39 -4 20 -11 53 -14 72 -8 45 -85 475 -91 504 -2
11 -6 37 -10 56 -3 19 -9 55 -14 80 -5 25 -23 124 -40 221 -17 97 -33 187 -35
200 -3 13 -16 87 -30 164 -14 77 -27 151 -30 165 -9 49 -41 228 -50 285 -3 17
-7 39 -9 50 -12 61 -40 217 -65 360 -23 131 -79 441 -85 471 -2 12 -7 37 -10
55 -8 49 -35 200 -41 229 -3 14 -14 75 -24 135 -25 138 -107 600 -115 640 -3
17 -24 134 -46 260 -34 191 -61 339 -93 515 -3 14 -10 54 -16 90 -7 36 -14 77
-17 93 l-6 27 -814 0 c-449 0 -813 -3 -811 -7z"/>
<path d="M6149 9993 c-1 -12 -8 -53 -19 -108 -5 -27 -12 -63 -15 -80 -2 -16
-10 -56 -15 -88 -6 -32 -13 -70 -15 -85 -2 -15 -6 -38 -9 -52 -5 -24 -60 -331
-71 -395 -8 -43 -62 -345 -80 -440 -8 -44 -21 -118 -30 -165 -8 -47 -26 -148
-39 -225 -14 -77 -28 -156 -31 -175 -3 -19 -8 -42 -10 -50 -2 -8 -6 -31 -9
-50 -3 -19 -8 -46 -11 -60 -3 -14 -9 -50 -15 -80 -5 -30 -12 -68 -15 -85 -3
-16 -8 -45 -11 -64 -3 -18 -8 -43 -10 -55 -2 -11 -13 -70 -23 -131 -11 -60
-22 -123 -25 -140 -3 -16 -23 -131 -45 -255 -22 -124 -45 -247 -51 -275 -5
-27 -12 -66 -15 -85 -6 -39 -36 -202 -65 -360 -10 -58 -37 -208 -60 -335 -22
-126 -43 -241 -45 -255 -3 -14 -14 -74 -25 -135 -10 -60 -23 -132 -29 -160 -5
-27 -12 -70 -16 -95 -4 -25 -14 -84 -24 -132 -12 -59 -14 -88 -7 -89 6 -1 368
-2 805 -3 608 -1 797 2 807 11 6 7 15 36 19 65 4 29 8 60 10 69 1 9 15 83 29
165 15 82 33 181 41 219 8 39 16 90 20 115 3 25 8 53 11 63 3 10 7 32 10 50 2
18 8 55 14 82 5 28 12 64 15 80 3 17 7 44 10 60 11 62 25 141 30 170 3 17 12
64 20 105 7 41 19 107 26 145 6 39 13 79 15 90 3 11 6 34 9 50 3 17 10 53 15
80 5 28 12 64 15 80 3 17 7 41 10 55 3 14 9 50 14 80 11 59 39 219 46 260 3
14 14 77 25 140 11 63 22 122 25 130 2 8 6 33 9 55 4 22 8 51 11 65 10 46 15
74 56 305 22 127 42 241 45 255 2 14 7 41 9 60 3 19 7 42 10 50 2 8 7 33 11
55 3 22 14 83 24 135 10 52 21 115 25 140 3 25 8 52 10 60 2 8 7 29 9 45 3 17
19 104 35 195 17 91 33 181 36 200 5 34 19 112 51 280 8 47 17 97 19 111 2 14
13 77 25 139 12 62 23 128 26 147 2 20 7 39 10 44 3 5 -335 9 -810 9 -449 0
-816 -3 -817 -7z"/>
<path d="M8373 9988 c-1 -12 -27 -161 -38 -218 -3 -14 -9 -50 -15 -80 -5 -30
-14 -82 -20 -115 -6 -33 -13 -75 -16 -94 -3 -18 -8 -43 -10 -55 -6 -30 -33
-181 -45 -246 -8 -52 -12 -71 -24 -130 -2 -14 -6 -36 -9 -50 -14 -85 -18 -110
-27 -155 -16 -82 -59 -327 -65 -365 -3 -19 -11 -66 -19 -105 -7 -38 -16 -88
-20 -110 -10 -54 -13 -75 -20 -110 -3 -16 -8 -46 -11 -65 -3 -19 -7 -42 -9
-50 -2 -8 -7 -31 -10 -50 -3 -19 -17 -96 -30 -170 -14 -74 -26 -146 -29 -160
-2 -14 -11 -63 -20 -110 -8 -47 -18 -100 -21 -117 -3 -18 -7 -48 -10 -65 -3
-18 -8 -40 -10 -48 -2 -8 -6 -31 -9 -50 -3 -19 -10 -60 -16 -90 -6 -30 -13
-64 -14 -75 -4 -26 -37 -214 -42 -240 -4 -22 -31 -173 -39 -220 -3 -16 -8 -41
-11 -55 -3 -14 -8 -38 -10 -55 -2 -16 -6 -41 -9 -55 -3 -14 -8 -38 -11 -55 -3
-16 -18 -104 -35 -195 -16 -91 -32 -178 -35 -195 -2 -16 -11 -66 -19 -110 -8
-44 -17 -96 -20 -115 -3 -19 -8 -46 -10 -60 -16 -80 -22 -109 -30 -162 -3 -18
-8 -46 -12 -63 -3 -16 -7 -39 -9 -50 -1 -11 -9 -51 -16 -90 -7 -38 -13 -77
-13 -85 0 -13 97 -15 803 -15 442 0 808 2 812 5 5 3 11 25 15 50 3 25 8 52 10
60 2 8 7 31 10 50 3 19 12 69 20 110 8 41 17 91 19 110 6 38 6 35 41 230 13
74 26 146 29 160 2 14 7 36 10 50 3 14 8 41 10 60 3 19 12 71 20 115 9 44 18
96 21 115 3 19 8 42 10 50 2 8 7 35 10 60 4 25 10 63 15 85 5 22 11 54 14 70
5 36 19 118 21 125 4 15 19 96 20 105 1 13 13 86 26 150 21 113 39 211 43 235
4 23 13 76 22 125 2 11 15 83 29 160 13 77 29 165 34 195 6 30 13 71 16 90 18
104 26 149 54 300 16 91 33 181 36 200 3 19 8 46 10 60 12 60 16 81 35 187 11
62 22 122 24 135 3 13 8 39 11 58 2 19 7 46 10 60 14 72 25 129 29 160 3 19 8
45 10 56 2 12 7 37 10 55 6 35 7 41 31 174 8 44 17 96 20 115 12 68 75 416 90
493 8 42 15 82 15 87 0 16 -1627 13 -1627 -2z"/>
<path d="M844 4709 c-2 -3 -6 -25 -9 -49 -3 -23 -7 -45 -9 -49 -2 -3 -7 -26
-10 -51 -8 -58 -15 -99 -22 -130 -3 -13 -7 -38 -10 -55 -2 -16 -6 -41 -9 -55
-3 -14 -7 -38 -10 -55 -3 -16 -10 -52 -15 -80 -5 -27 -11 -61 -14 -75 -8 -47
-67 -375 -86 -480 -11 -58 -22 -121 -25 -140 -3 -19 -15 -84 -26 -145 -12 -60
-22 -119 -24 -130 -3 -23 -63 -358 -70 -395 -3 -14 -12 -63 -20 -110 -18 -100
-21 -119 -40 -225 -8 -44 -17 -96 -20 -115 -3 -19 -8 -46 -10 -60 -10 -49 -15
-77 -50 -265 -19 -104 -41 -230 -50 -280 -8 -49 -17 -101 -20 -115 -3 -14 -8
-41 -11 -60 -3 -19 -12 -66 -19 -105 -8 -38 -16 -86 -19 -105 -3 -19 -8 -46
-10 -60 -3 -14 -28 -153 -56 -310 -28 -157 -52 -292 -55 -300 -2 -8 -7 -33
-10 -55 -3 -23 -7 -50 -9 -60 -12 -63 -36 -195 -41 -225 -3 -19 -10 -57 -15
-85 -16 -81 -19 -97 -26 -140 -3 -22 -9 -58 -14 -80 -5 -22 -10 -46 -10 -53 0
-10 166 -12 812 -10 l813 3 11 65 c6 36 14 80 18 98 3 17 8 46 11 62 8 46 14
82 20 110 3 14 12 66 20 115 9 50 22 124 30 165 8 41 17 91 20 110 3 19 17 96
30 170 14 74 27 149 30 165 2 17 7 41 10 55 3 14 14 79 26 145 11 66 27 154
34 195 8 41 17 89 20 105 3 17 16 93 30 170 14 77 27 154 30 170 3 17 7 39 10
51 3 12 7 39 10 60 4 21 8 46 10 54 3 8 7 32 11 54 3 21 7 48 9 59 4 15 64
356 80 442 1 11 6 31 9 45 3 14 8 41 10 60 3 19 24 136 46 260 23 124 48 263
56 310 8 47 16 94 18 105 2 11 20 108 40 215 19 107 38 209 40 225 3 17 17 95
31 175 27 153 28 157 44 235 5 28 12 68 15 90 4 23 9 52 11 65 3 14 8 41 11
60 3 19 14 80 25 134 10 55 16 102 13 105 -8 8 -1615 8 -1620 0z"/>
<path d="M3070 4700 c-4 -8 -10 -36 -14 -61 -8 -55 -11 -73 -36 -209 -11 -58
-33 -179 -49 -270 -27 -148 -67 -369 -91 -505 -13 -78 -19 -109 -51 -285 -17
-91 -32 -176 -34 -190 -3 -14 -7 -38 -9 -55 -3 -16 -7 -41 -10 -55 -3 -13 -8
-42 -11 -65 -3 -22 -8 -47 -10 -55 -2 -8 -7 -28 -9 -45 -17 -97 -87 -488 -96
-530 -5 -27 -12 -67 -16 -89 -3 -21 -8 -48 -10 -60 -2 -11 -8 -46 -14 -76 -6
-30 -12 -65 -14 -76 -2 -12 -7 -39 -10 -60 -4 -22 -8 -46 -11 -54 -2 -8 -6
-33 -10 -55 -3 -22 -12 -76 -20 -120 -8 -44 -17 -96 -21 -115 -3 -19 -7 -44
-9 -55 -1 -11 -10 -56 -18 -100 -9 -44 -28 -147 -42 -230 -14 -82 -30 -170
-35 -195 -5 -25 -12 -65 -16 -90 -5 -25 -8 -47 -9 -50 -2 -8 -17 -93 -21 -120
-3 -14 -9 -47 -14 -75 -5 -27 -12 -63 -15 -80 -7 -42 -13 -78 -30 -170 -8 -44
-17 -93 -20 -110 -3 -16 -7 -41 -10 -55 -13 -71 -46 -259 -51 -290 -3 -19 -8
-38 -11 -42 -2 -5 363 -8 811 -8 449 0 816 3 817 8 0 4 2 14 4 22 1 8 5 29 8
45 6 35 54 305 62 350 17 93 75 414 79 435 6 38 54 304 71 395 8 44 17 96 20
115 3 19 12 71 21 115 8 44 17 96 20 115 3 19 7 41 10 49 2 8 7 30 10 50 3 20
14 86 25 146 11 61 22 126 25 145 3 19 7 42 9 50 2 8 7 31 10 50 3 19 19 109
35 200 17 91 32 179 35 195 3 17 7 41 10 55 3 14 10 52 16 85 5 33 12 71 15
85 5 27 41 226 49 275 3 17 17 93 31 170 14 77 32 178 40 225 8 47 17 96 20
110 3 14 6 34 8 45 8 43 26 145 46 255 11 63 22 124 24 135 2 11 7 38 11 60
12 66 14 77 25 137 6 32 12 70 15 85 3 16 10 56 15 90 6 34 12 68 15 75 2 7 7
31 10 53 3 22 14 86 25 143 11 57 20 113 20 125 l0 22 -806 0 c-706 0 -807 -2
-814 -15z"/>
<path d="M5306 4700 c8 -40 34 -178 38 -205 2 -16 27 -156 55 -310 28 -154 53
-293 56 -310 2 -16 7 -40 9 -51 2 -12 7 -37 10 -55 3 -19 8 -45 11 -59 2 -14
11 -63 19 -110 9 -47 18 -96 20 -110 3 -14 14 -77 25 -140 12 -63 23 -127 26
-143 5 -28 22 -124 31 -174 3 -16 21 -115 40 -222 19 -106 37 -205 39 -220 2
-14 6 -37 9 -51 5 -28 26 -142 32 -180 3 -14 7 -36 9 -50 3 -14 8 -38 10 -55
3 -16 10 -52 15 -80 5 -27 12 -68 16 -90 3 -22 10 -59 15 -83 5 -23 12 -59 15
-80 3 -20 7 -44 9 -52 2 -8 7 -35 10 -60 3 -25 10 -61 15 -80 5 -19 11 -53 14
-75 3 -22 13 -76 21 -120 31 -167 55 -301 60 -340 4 -22 8 -47 10 -55 3 -8 7
-33 11 -55 3 -22 9 -58 14 -80 5 -22 14 -69 19 -105 12 -73 14 -83 41 -230 24
-130 29 -156 36 -200 3 -19 7 -42 9 -50 2 -8 7 -31 10 -50 7 -46 24 -139 30
-170 3 -14 7 -38 9 -55 3 -16 10 -54 15 -84 6 -29 11 -55 11 -57 0 -2 366 -4
813 -4 l813 0 -28 157 c-16 87 -54 297 -84 468 -31 171 -62 346 -70 390 -25
133 -50 272 -60 334 -3 18 -8 43 -10 55 -2 11 -7 35 -9 51 -13 70 -25 142 -30
165 -3 14 -9 50 -15 80 -10 60 -12 73 -65 365 -20 110 -42 238 -51 285 -8 47
-16 92 -19 100 -2 8 -7 34 -10 58 -3 23 -20 116 -36 205 -17 89 -32 173 -34
187 -4 26 -42 237 -50 280 -3 14 -14 78 -26 142 -11 64 -22 127 -24 140 -3 13
-10 50 -15 83 -6 33 -15 83 -20 110 -9 43 -37 198 -55 300 -2 17 -7 41 -10 55
-3 14 -8 43 -11 65 -9 58 -11 74 -23 135 -13 64 -91 496 -91 501 0 2 -366 4
-813 4 -718 0 -813 -2 -811 -15z"/>
<path d="M7536 4710 c-1 -3 -2 -9 -1 -15 2 -19 16 -107 21 -128 2 -12 13 -71
24 -132 11 -60 26 -144 34 -185 8 -41 17 -93 20 -115 3 -22 11 -62 16 -90 5
-27 12 -66 15 -85 4 -19 17 -93 30 -165 13 -71 31 -170 39 -220 9 -49 18 -101
21 -115 5 -24 26 -144 60 -335 9 -49 18 -101 21 -115 2 -14 16 -90 30 -170 13
-80 31 -176 39 -215 12 -61 41 -225 60 -335 3 -19 8 -46 10 -60 10 -49 15 -77
40 -215 13 -77 26 -149 28 -160 7 -32 16 -87 23 -129 3 -21 8 -48 10 -60 3
-11 13 -70 24 -131 11 -60 22 -121 25 -135 2 -14 22 -124 44 -245 22 -121 42
-231 44 -245 3 -14 8 -41 11 -60 3 -19 8 -48 11 -65 6 -29 14 -76 55 -305 11
-63 22 -126 25 -140 12 -57 57 -316 58 -327 0 -10 170 -13 814 -13 l815 0 -6
27 c-3 16 -13 71 -21 123 -9 52 -18 97 -20 100 -1 3 -6 27 -9 53 -4 26 -11 71
-17 100 -5 29 -12 67 -15 86 -3 18 -8 43 -10 55 -3 11 -7 39 -10 61 -3 22 -7
46 -10 54 -3 8 -7 30 -10 50 -3 20 -13 81 -24 136 -22 120 -28 154 -40 220 -5
28 -18 102 -29 165 -23 127 -25 139 -40 225 -6 33 -13 71 -16 85 -3 14 -14 77
-25 140 -11 63 -22 126 -25 140 -5 24 -20 107 -29 160 -2 14 -11 63 -20 110
-8 47 -18 101 -21 120 -4 19 -13 71 -21 115 -7 44 -16 94 -19 110 -3 17 -8 41
-10 55 -3 14 -8 39 -11 55 -2 17 -9 55 -15 85 -5 30 -19 105 -29 165 -11 61
-22 124 -25 140 -3 17 -10 55 -15 85 -6 30 -12 64 -14 75 -13 65 -36 196 -42
229 -3 21 -8 48 -10 60 -2 11 -9 48 -14 81 -6 33 -15 83 -20 110 -6 28 -19
100 -30 160 -10 61 -22 124 -25 140 -3 17 -12 68 -20 115 -8 47 -17 96 -20
110 -2 13 -11 63 -20 110 -20 113 -64 360 -69 385 -2 11 -7 41 -10 68 -4 26
-13 48 -19 48 -39 4 -1609 3 -1611 -1z"/>
</g>
</svg>
