<?xml version="1.0" standalone="no"?>
<!DOCTYPE svg PUBLIC "-//W3C//DTD SVG 20010904//EN"
 "http://www.w3.org/TR/2001/REC-SVG-20010904/DTD/svg10.dtd">
<svg version="1.0" xmlns="http://www.w3.org/2000/svg"
 width="1000.000000pt" height="1000.000000pt" viewBox="0 0 1000.000000 1000.000000"
 preserveAspectRatio="xMidYMid meet">
<metadata>
Created by potrace 1.11, written by Peter Selinger 2001-2013
</metadata>
<g transform="translate(0.000000,1000.000000) scale(0.100000,-0.100000)"
fill="#000000" stroke="none">
<path d="M827 9332 c-21 -4 -21 -12 -2 -101 8 -39 17 -85 20 -103 3 -18 12
-64 20 -103 8 -38 17 -86 20 -105 3 -19 14 -80 25 -135 11 -55 22 -112 24
-128 3 -15 7 -35 10 -45 3 -9 7 -35 11 -57 3 -22 8 -47 10 -55 3 -8 7 -29 9
-45 3 -26 67 -366 81 -435 3 -14 8 -41 11 -60 3 -19 7 -42 9 -50 2 -8 7 -31
10 -50 3 -19 12 -66 20 -105 7 -38 25 -133 40 -210 14 -77 30 -160 35 -185 9
-44 14 -70 26 -139 3 -18 8 -43 10 -55 3 -11 11 -55 19 -96 8 -41 19 -100 25
-130 5 -30 12 -66 15 -80 3 -14 7 -36 10 -50 2 -14 7 -38 10 -55 3 -16 7 -41
10 -55 3 -14 19 -99 36 -190 49 -260 56 -298 78 -415 12 -60 23 -121 26 -135
3 -15 21 -109 40 -210 20 -102 38 -198 40 -215 3 -16 9 -52 15 -80 6 -27 12
-61 15 -75 6 -29 25 -133 25 -134 0 -1 333 -1 741 -1 l741 0 -7 43 c-4 24 -8
54 -11 65 -2 12 -11 60 -20 107 -16 91 -47 251 -65 339 -6 30 -12 63 -14 75
-1 12 -17 95 -34 186 -38 197 -111 585 -117 620 -2 14 -9 45 -14 70 -5 25 -18
95 -30 155 -11 61 -23 121 -25 135 -3 14 -8 40 -11 59 -7 40 -10 58 -18 91 -3
14 -8 36 -10 50 -3 20 -26 143 -42 223 -20 106 -57 306 -60 322 -2 17 -12 67
-29 155 -19 94 -37 190 -41 220 -3 19 -9 51 -14 70 -5 19 -11 51 -14 70 -3 19
-8 46 -11 60 -3 14 -7 36 -10 50 -2 14 -14 75 -25 135 -24 128 -40 212 -45
240 -3 17 -13 68 -30 155 -3 14 -9 50 -15 80 -6 30 -12 66 -15 80 -3 14 -7 39
-10 55 -3 17 -12 64 -21 105 l-16 75 -722 0 c-397 0 -730 -1 -739 -3z"/>
<path d="M2882 9332 c-39 -3 -43 -6 -39 -25 3 -12 15 -74 27 -137 11 -63 28
-149 36 -190 9 -41 17 -88 19 -104 3 -15 7 -35 9 -45 3 -9 8 -38 12 -66 3 -27
8 -53 10 -56 2 -4 6 -24 10 -45 3 -22 9 -55 14 -74 5 -19 12 -55 15 -80 4 -24
8 -47 10 -50 2 -3 6 -26 10 -50 3 -25 8 -52 10 -60 2 -8 7 -28 9 -45 3 -16 10
-55 16 -85 6 -30 13 -68 15 -85 3 -16 10 -55 16 -85 7 -30 13 -64 15 -75 4
-30 52 -280 85 -445 5 -25 11 -58 14 -75 9 -56 15 -90 30 -165 8 -41 17 -86
19 -100 3 -14 10 -50 16 -80 6 -30 13 -64 14 -75 2 -11 11 -60 21 -110 9 -49
18 -97 20 -105 2 -8 10 -55 19 -105 19 -102 92 -486 106 -555 9 -45 29 -152
34 -180 2 -8 6 -33 10 -55 4 -22 11 -60 17 -85 5 -25 11 -60 14 -77 3 -18 14
-77 24 -130 11 -54 22 -111 25 -128 3 -16 10 -55 16 -85 6 -30 12 -66 15 -80
3 -14 8 -38 11 -55 3 -16 7 -32 10 -35 7 -6 1483 -7 1479 0 -1 3 -6 28 -9 55
-4 28 -11 68 -16 90 -5 22 -16 78 -25 125 -9 47 -17 92 -19 100 -2 8 -6 33
-10 55 -4 22 -11 60 -16 85 -5 25 -21 108 -35 185 -14 77 -30 160 -35 185 -6
25 -12 59 -15 75 -3 17 -7 41 -10 55 -3 14 -16 86 -30 160 -14 74 -27 146 -30
160 -3 14 -8 39 -10 55 -3 17 -14 75 -25 130 -11 55 -22 111 -25 125 -3 14 -9
50 -15 80 -10 61 -10 61 -46 245 -14 72 -27 145 -29 163 -2 18 -7 41 -9 50 -5
15 -28 133 -56 287 -5 28 -12 64 -15 80 -3 17 -10 50 -15 75 -9 41 -36 190
-46 250 -2 14 -9 45 -14 70 -5 25 -12 59 -15 75 -3 17 -7 41 -10 55 -3 14 -9
50 -15 80 -11 60 -17 92 -25 130 -2 14 -7 40 -10 59 -3 19 -7 37 -9 40 -2 3
-7 28 -10 55 -4 27 -9 52 -11 56 -2 3 -6 26 -10 50 -4 25 -22 124 -40 220 -19
96 -37 191 -40 210 -3 19 -10 49 -14 67 -5 17 -6 34 -3 37 3 3 -6 6 -19 7 -75
3 -1391 3 -1427 1z"/>
<path d="M6308 9332 c-10 -2 -18 -19 -23 -50 -7 -48 -9 -61 -20 -122 -4 -19
-9 -46 -11 -60 -3 -14 -23 -117 -44 -230 -22 -113 -42 -223 -46 -245 -3 -22
-7 -42 -9 -45 -2 -3 -6 -24 -9 -46 -8 -50 -14 -81 -20 -102 -4 -15 -14 -69
-20 -112 -2 -8 -6 -28 -9 -45 -4 -16 -9 -44 -12 -62 -3 -18 -21 -112 -40 -210
-19 -98 -37 -194 -40 -213 -8 -47 -34 -184 -46 -240 -5 -25 -12 -63 -15 -85
-3 -22 -7 -48 -10 -57 -6 -19 -12 -50 -19 -93 -3 -16 -10 -52 -15 -80 -5 -27
-12 -66 -15 -85 -4 -19 -10 -54 -16 -78 -5 -23 -12 -59 -15 -80 -3 -20 -9 -53
-14 -72 -5 -19 -11 -51 -14 -71 -3 -19 -17 -93 -30 -165 -14 -71 -28 -142 -31
-159 -5 -29 -9 -51 -20 -105 -3 -14 -9 -50 -15 -80 -6 -30 -12 -64 -14 -75 -2
-11 -13 -69 -24 -130 -12 -60 -24 -123 -27 -140 -3 -16 -7 -39 -9 -50 -2 -11
-9 -47 -15 -80 -6 -33 -14 -73 -17 -90 -3 -16 -11 -61 -19 -100 -8 -38 -17
-86 -20 -105 -3 -19 -15 -80 -26 -135 -11 -55 -23 -120 -26 -145 l-5 -45 1446
0 1446 0 9 50 c6 27 19 100 31 160 11 61 22 121 25 135 3 14 19 99 35 190 17
91 35 185 40 210 5 25 12 56 14 70 4 22 16 81 31 160 5 25 21 113 29 161 2 14
13 73 25 130 11 57 22 115 25 129 2 14 14 75 25 135 12 61 24 126 27 145 3 19
7 42 9 50 2 8 7 29 10 47 3 17 16 87 29 155 20 102 48 245 70 368 4 22 17 89
31 160 3 14 10 52 15 85 6 33 15 80 20 105 5 25 12 59 15 75 3 17 7 39 9 50 2
11 13 70 24 130 12 61 23 121 26 135 5 25 42 224 51 270 3 14 7 36 10 50 6 29
51 269 60 320 3 19 12 67 20 105 8 39 17 86 21 105 3 19 7 40 8 45 2 6 6 33
11 60 4 28 12 60 16 73 8 20 6 22 -29 23 -133 2 -2841 3 -2854 1z"/>
<path d="M1575 4730 c-2 -14 -7 -38 -10 -55 -3 -16 -7 -41 -10 -55 -21 -105
-25 -128 -29 -150 -2 -14 -12 -65 -21 -115 -9 -49 -19 -99 -21 -110 -29 -154
-38 -200 -50 -260 -14 -72 -20 -104 -30 -165 -3 -19 -9 -53 -14 -75 -5 -22
-12 -56 -15 -75 -3 -19 -12 -66 -20 -105 -8 -38 -16 -83 -19 -100 -18 -95 -31
-169 -41 -215 -2 -14 -7 -41 -10 -60 -4 -19 -10 -53 -15 -75 -5 -22 -11 -56
-14 -75 -3 -19 -8 -46 -11 -60 -3 -14 -7 -36 -10 -50 -3 -14 -7 -36 -10 -50
-3 -14 -8 -41 -11 -60 -4 -19 -8 -44 -11 -55 -2 -11 -8 -42 -13 -70 -5 -27
-16 -86 -24 -130 -8 -44 -17 -96 -21 -115 -3 -19 -8 -42 -10 -50 -2 -8 -7 -31
-10 -50 -3 -19 -17 -91 -30 -160 -13 -69 -26 -136 -29 -150 -2 -14 -27 -146
-55 -295 -28 -148 -60 -317 -71 -375 -11 -58 -22 -116 -25 -130 -98 -508 -109
-570 -98 -570 4 -1 336 -1 737 -2 536 0 730 3 736 11 3 7 19 80 35 164 15 84
29 161 32 172 8 42 33 171 38 200 5 29 9 51 20 105 3 14 10 52 15 85 6 33 17
92 25 130 8 39 16 84 19 100 3 17 8 41 11 55 2 13 7 42 11 64 3 22 7 43 9 46
2 3 6 26 10 50 3 25 8 52 10 60 3 8 23 112 45 230 22 118 42 224 44 235 2 11
16 83 30 160 14 77 28 151 31 165 3 14 21 106 40 205 19 99 39 205 45 235 6
30 13 67 15 82 2 15 6 35 9 45 3 10 7 36 11 58 3 22 12 72 20 110 8 39 17 86
20 105 4 19 13 69 20 110 8 41 17 89 20 105 3 17 10 50 15 75 13 63 71 370 76
400 2 14 6 36 9 50 5 28 51 267 59 315 3 17 11 56 17 89 5 32 7 61 4 65 -4 3
-337 6 -741 6 l-733 0 -6 -25z"/>
<path d="M3615 4749 c-2 -3 -6 -16 -9 -30 -2 -13 -18 -98 -36 -189 -33 -173
-52 -276 -75 -400 -8 -41 -28 -147 -45 -235 -31 -162 -115 -605 -124 -660 -3
-16 -8 -41 -11 -55 -5 -27 -42 -220 -49 -260 -11 -58 -56 -297 -61 -320 -3
-14 -8 -38 -11 -55 -3 -16 -23 -124 -45 -240 -22 -115 -44 -232 -49 -260 -5
-27 -15 -84 -24 -125 -8 -41 -24 -124 -35 -185 -11 -60 -23 -123 -26 -140 -3
-16 -12 -66 -20 -109 -8 -43 -17 -86 -19 -95 -3 -9 -7 -33 -10 -53 -3 -21 -10
-57 -15 -80 -6 -24 -12 -59 -16 -78 -3 -19 -10 -57 -15 -85 -5 -27 -12 -61
-14 -75 -3 -14 -10 -50 -16 -80 -6 -30 -13 -69 -16 -87 -2 -18 -11 -64 -19
-104 -9 -40 -13 -74 -11 -77 7 -6 1464 -5 1475 2 5 3 12 27 17 53 4 27 8 50 9
53 1 3 5 25 9 50 5 25 10 54 12 65 2 11 18 92 34 180 17 88 32 167 35 175 3
13 14 70 19 110 2 8 6 29 9 45 4 17 9 44 12 60 2 17 16 89 30 160 15 72 28
142 30 157 2 15 6 35 9 45 3 10 7 36 11 58 6 42 29 168 45 245 6 25 12 59 15
75 3 17 7 41 10 55 2 14 14 75 25 135 12 61 25 130 30 155 12 56 67 353 75
400 3 19 10 53 15 75 5 22 12 56 15 75 3 19 26 143 52 275 25 132 47 250 49
263 2 12 6 32 8 45 2 12 16 83 30 157 14 74 27 146 30 160 7 44 57 302 76 400
11 52 22 111 25 130 3 19 10 53 15 75 5 22 11 58 14 80 4 22 9 47 11 55 4 13
-82 15 -736 15 -408 0 -742 -3 -744 -6z"/>
<path d="M5530 4734 c0 -12 9 -66 19 -120 11 -55 32 -162 46 -239 15 -77 35
-185 45 -240 11 -55 22 -113 24 -129 3 -16 10 -52 16 -80 12 -61 67 -348 74
-391 12 -70 57 -304 66 -345 5 -25 11 -58 14 -75 7 -46 35 -195 47 -247 6 -25
12 -57 14 -70 10 -64 16 -95 39 -214 14 -71 27 -140 29 -154 3 -14 13 -65 22
-115 10 -49 19 -101 20 -113 2 -13 8 -45 14 -70 6 -26 20 -96 31 -157 11 -60
22 -121 25 -135 3 -14 9 -47 15 -75 5 -27 11 -60 14 -71 2 -12 7 -37 10 -55 3
-19 15 -83 27 -144 11 -60 23 -121 25 -135 7 -39 43 -232 49 -260 3 -14 8 -38
10 -55 3 -16 12 -64 20 -105 8 -41 17 -90 20 -109 3 -19 7 -37 9 -40 2 -3 7
-31 11 -61 4 -30 8 -57 10 -58 3 -3 2601 -5 2843 -3 l53 1 -6 37 c-4 21 -9 52
-11 68 -2 17 -9 48 -14 70 -5 22 -18 90 -30 150 -11 61 -22 121 -25 135 -3 14
-8 41 -11 60 -6 39 -39 208 -54 286 -6 28 -13 64 -16 80 -4 25 -55 301 -69
374 -10 51 -15 76 -25 130 -16 86 -18 97 -44 235 -14 72 -28 141 -31 155 -3
14 -8 41 -11 60 -4 29 -11 64 -19 100 -1 3 -5 25 -9 50 -5 25 -10 54 -12 65
-5 29 -33 173 -55 290 -27 138 -23 119 -80 419 -28 149 -53 282 -55 296 -2 14
-7 36 -10 50 -3 14 -8 39 -11 55 -2 17 -13 75 -24 130 -36 185 -38 200 -43
225 -2 14 -14 77 -26 140 -12 63 -24 126 -26 140 -4 21 -22 112 -29 145 -1 6
-5 33 -10 60 -4 28 -11 57 -16 65 -7 13 -179 15 -1448 15 l-1441 0 0 -21z"/>
</g>
</svg>
