<?xml version="1.0" standalone="no"?>
<!DOCTYPE svg PUBLIC "-//W3C//DTD SVG 20010904//EN"
 "http://www.w3.org/TR/2001/REC-SVG-20010904/DTD/svg10.dtd">
<svg version="1.0" xmlns="http://www.w3.org/2000/svg"
 width="800.000000pt" height="800.000000pt" viewBox="0 0 800.000000 800.000000"
 preserveAspectRatio="xMidYMid meet">
<metadata>
Created by potrace 1.11, written by Peter Selinger 2001-2013
</metadata>
<g transform="translate(0.000000,800.000000) scale(0.100000,-0.100000)"
fill="#000000" stroke="none">
<path d="M492 7532 c-37 -4 -36 2 -17 -92 3 -14 8 -38 10 -55 7 -37 54 -296
61 -327 2 -13 6 -36 8 -53 3 -16 12 -68 21 -115 10 -47 18 -94 20 -105 5 -32
24 -137 30 -165 3 -14 10 -52 15 -85 6 -33 15 -80 20 -105 10 -45 14 -69 25
-145 4 -22 10 -56 15 -75 5 -19 12 -55 15 -80 3 -25 8 -52 10 -60 2 -8 7 -31
10 -50 3 -19 8 -42 10 -50 2 -8 6 -31 9 -50 9 -56 51 -291 61 -340 3 -14 8
-41 11 -60 5 -36 19 -109 35 -190 5 -25 11 -61 14 -80 7 -42 32 -177 45 -240
6 -25 12 -61 15 -80 6 -39 16 -94 21 -125 9 -46 14 -71 19 -95 3 -14 10 -52
15 -85 5 -33 12 -69 14 -80 2 -11 12 -60 21 -110 9 -49 19 -101 22 -115 3 -14
6 -126 8 -250 3 -202 1 -238 -20 -355 -14 -71 -27 -146 -30 -165 -3 -19 -7
-46 -10 -60 -3 -14 -7 -38 -10 -55 -3 -16 -7 -40 -9 -51 -2 -12 -7 -37 -10
-55 -3 -19 -13 -72 -21 -119 -9 -47 -18 -98 -21 -115 -3 -16 -10 -56 -15 -87
-6 -32 -12 -70 -15 -85 -2 -16 -9 -50 -14 -78 -5 -27 -12 -66 -15 -85 -8 -49
-38 -220 -80 -455 -20 -110 -38 -211 -40 -225 -5 -36 -13 -84 -30 -175 -19
-99 -32 -172 -45 -250 -10 -59 -15 -85 -25 -135 -2 -14 -7 -40 -10 -57 -11
-74 -16 -99 -20 -113 -2 -8 -6 -31 -9 -50 -6 -40 -34 -204 -41 -240 -3 -14
-14 -77 -25 -140 -11 -63 -22 -126 -25 -140 -6 -27 -41 -234 -50 -290 l-5 -35
3537 0 c2240 1 3537 4 3536 10 0 6 -3 24 -6 40 -3 17 -12 73 -22 125 -9 52
-18 109 -21 125 -2 17 -7 41 -9 55 -11 55 -16 79 -31 165 -8 50 -17 101 -20
115 -2 14 -7 40 -10 59 -3 18 -7 43 -10 55 -4 20 -56 313 -74 421 -5 28 -16
91 -25 140 -9 50 -18 104 -21 120 -2 17 -7 37 -9 45 -2 8 -6 33 -10 55 -5 38
-20 124 -31 182 -3 16 -7 37 -9 48 -3 21 -61 353 -69 395 -3 14 -12 66 -20
115 -9 50 -18 100 -20 111 -2 12 -7 39 -10 60 -4 22 -8 46 -11 54 -4 16 -13
70 -21 130 -2 19 -6 42 -9 50 -2 8 -7 31 -10 50 -3 19 -8 42 -10 50 -2 8 -7
34 -10 58 -3 24 -13 80 -21 125 -8 45 -24 134 -35 197 -11 63 -25 142 -31 175
-18 104 -13 477 8 570 1 6 4 26 8 45 3 19 8 46 11 60 2 14 7 36 10 50 2 14 7
39 10 55 2 17 25 143 50 280 46 249 57 308 74 408 8 42 31 169 46 247 11 56
35 191 40 220 3 19 15 82 26 140 11 58 22 121 25 140 3 19 7 42 9 50 2 8 7 31
10 50 3 19 10 60 17 90 6 30 12 64 13 75 1 11 7 45 13 75 6 30 14 71 17 90 3
19 8 46 10 60 12 58 61 326 70 380 3 19 8 42 10 50 2 8 6 31 9 50 3 19 14 82
25 140 11 58 23 121 26 140 3 19 12 71 21 115 8 44 17 96 20 115 3 19 8 38 11
43 2 4 -4 7 -14 7 -106 3 -7007 4 -7031 2z m1959 -2457 c0 -11 0 -227 0 -481
l0 -461 272 1 272 1 2 470 c1 259 2 475 2 480 1 7 101 10 283 10 l283 0 0
-1225 0 -1225 -282 0 c-182 0 -283 4 -284 10 0 5 -1 237 -2 515 l-2 505 -270
0 -270 0 -2 -440 c-1 -242 -2 -474 -2 -515 l-1 -75 -277 1 c-153 1 -280 2
-283 3 -8 2 -7 2435 1 2441 4 3 131 5 283 5 270 0 276 0 277 -20z m2618 0
c248 -26 422 -114 521 -262 21 -33 30 -41 31 -27 0 10 1 81 1 157 0 75 3 137
7 138 8 1 500 1 529 0 l22 -1 0 -463 0 -462 -302 0 c-259 0 -301 2 -303 15 -1
8 -5 39 -9 69 -23 188 -125 336 -270 390 -82 30 -201 42 -276 26 -14 -3 -35
-7 -46 -9 -56 -11 -143 -63 -199 -120 -143 -146 -207 -380 -200 -736 2 -127 8
-207 20 -255 9 -38 18 -80 21 -93 18 -87 85 -207 156 -275 92 -90 213 -136
348 -131 250 9 388 152 419 437 1 4 149 7 331 7 l329 0 -5 -62 c-31 -383 -279
-652 -699 -757 -141 -35 -229 -45 -390 -45 -190 1 -361 28 -505 80 -336 120
-555 342 -658 666 -35 106 -47 167 -67 333 -7 58 -7 294 0 345 3 19 7 55 10
80 25 205 103 415 212 568 168 235 417 367 733 389 47 3 86 6 87 7 3 2 90 -2
152 -9z"/>
</g>
</svg>
