<?xml version="1.0" standalone="no"?>
<!DOCTYPE svg PUBLIC "-//W3C//DTD SVG 20010904//EN"
 "http://www.w3.org/TR/2001/REC-SVG-20010904/DTD/svg10.dtd">
<svg version="1.0" xmlns="http://www.w3.org/2000/svg"
 width="476.000000pt" height="476.000000pt" viewBox="0 0 476.000000 476.000000"
 preserveAspectRatio="xMidYMid meet">
<metadata>
Created by potrace 1.11, written by Peter Selinger 2001-2013
</metadata>
<g transform="translate(0.000000,476.000000) scale(0.100000,-0.100000)"
fill="#000000" stroke="none">
<path d="M252 4508 c-1 -84 -3 -182 -4 -218 -4 -223 -1 -2060 4 -2399 l3 -204
61 -4 c34 -2 95 0 135 6 69 9 76 12 111 52 l36 42 47 -12 c47 -12 422 -17 467
-6 46 11 52 -5 33 -91 -29 -141 -45 -277 -39 -339 3 -33 19 -95 35 -137 33
-84 33 -79 -3 -248 -34 -165 -30 -378 10 -457 27 -53 92 -117 144 -144 27 -14
69 -24 113 -27 39 -2 81 -10 95 -17 85 -42 293 -96 485 -126 77 -12 144 -25
149 -30 23 -21 27 0 24 146 l-3 155 230 0 230 0 -3 -152 c-2 -165 2 -203 21
-191 6 4 28 6 48 4 50 -3 277 26 379 50 47 11 112 32 145 49 82 40 194 136
230 199 16 28 32 51 36 51 4 0 19 -17 35 -38 72 -95 168 -150 318 -184 201
-44 388 0 543 129 94 79 174 274 174 424 -1 119 -23 196 -88 299 -15 25 -14
29 22 104 20 43 43 101 51 129 17 63 18 207 3 279 -11 49 -55 146 -95 209 -16
25 -16 27 18 70 19 25 45 79 59 120 20 63 24 92 23 194 -1 130 -20 207 -69
285 l-24 38 30 56 c60 110 89 209 89 300 0 46 -4 96 -9 112 -5 16 -14 49 -21
74 -22 80 -41 124 -76 178 -19 28 -32 57 -29 62 3 5 0 7 -8 4 -8 -3 -20 2 -27
11 -7 8 -17 15 -23 15 -7 0 -7 -4 1 -12 20 -20 13 -69 -17 -133 -25 -51 -30
-56 -33 -35 -2 17 -7 5 -15 -35 -6 -34 -29 -100 -51 -148 -47 -102 -49 -102
-197 -102 -116 1 -238 27 -274 59 -33 29 -161 295 -161 335 0 19 -5 31 -14 31
-17 0 -10 44 10 61 27 22 14 30 -15 10 -16 -12 -35 -21 -43 -21 -7 -1 -35 -36
-63 -80 -27 -43 -58 -81 -68 -84 -11 -2 -17 -12 -15 -22 4 -22 -20 -31 -28
-10 -6 15 -8 15 -18 2 -9 -12 -19 -13 -51 -6 -59 13 -200 81 -229 110 -5 5
-18 10 -27 10 -9 0 -19 7 -23 15 -7 20 -26 19 -26 -2 0 -15 -2 -15 -19 1 -16
15 -22 15 -41 4 -18 -11 -23 -11 -34 5 -7 9 -16 17 -19 17 -4 0 -4 -8 -1 -17
5 -17 5 -17 -6 0 -12 18 -36 23 -42 8 -3 -8 -73 1 -198 27 l-35 7 -5 81 c-3
45 -11 88 -18 96 -6 8 -9 18 -5 21 3 4 1 18 -6 31 -9 16 -12 68 -9 182 3 145
5 162 26 196 13 20 24 54 26 76 1 21 6 43 9 49 4 6 3 22 -2 36 -5 14 -7 28 -4
31 8 8 -18 115 -29 122 -4 3 -8 13 -8 24 0 22 -135 150 -159 150 -9 0 -26 -11
-39 -25 -13 -13 -37 -25 -54 -27 -30 -3 -40 -13 -53 -52 -4 -15 -8 -17 -17 -8
-25 25 -58 14 -74 -23 -8 -20 -26 -41 -39 -47 -14 -6 -25 -19 -25 -29 0 -10
-4 -20 -9 -23 -5 -4 -15 27 -21 66 -14 85 -49 159 -86 185 -14 10 -34 25 -43
34 -10 8 -22 14 -28 12 -6 -2 -35 8 -65 23 -58 30 -118 42 -118 25 0 -6 15
-11 33 -11 17 0 38 -4 46 -9 8 -5 -5 -7 -35 -4 -27 3 -53 12 -57 19 -10 18
-37 18 -62 0 -11 -7 -49 -16 -85 -19 -152 -14 -289 -41 -455 -89 -123 -35
-298 -99 -351 -127 -21 -12 -42 -21 -46 -21 -4 0 -29 -13 -56 -30 -26 -16 -66
-32 -88 -36 l-41 -6 -28 81 c-16 45 -32 81 -37 81 -5 0 -7 4 -3 10 3 5 1 17
-4 27 -5 10 -26 52 -46 94 -52 107 -99 159 -150 166 l-40 5 -3 -154z m2172
-173 c3 -8 1 -15 -4 -15 -6 0 -10 7 -10 15 0 8 2 15 4 15 2 0 6 -7 10 -15z
m-191 -105 c-8 -8 -33 32 -27 42 4 6 12 -1 18 -14 7 -12 11 -25 9 -28z m-73
-142 c0 -5 -4 -8 -10 -8 -14 0 -32 39 -24 52 6 10 33 -25 34 -44z m34 -88 c-6
-70 -4 -83 14 -115 20 -33 21 -44 2 -90 -49 -124 -100 -282 -100 -313 0 -3 -4
-2 -10 4 -14 14 -15 200 -2 309 6 50 12 132 13 183 2 90 2 93 23 88 12 -3 28
-1 36 4 28 18 31 10 24 -70z m36 -51 c0 -5 -4 -9 -10 -9 -5 0 -10 7 -10 16 0
8 5 12 10 9 6 -3 10 -10 10 -16z m10 -40 c7 -11 9 -24 5 -27 -7 -7 -35 25 -35
40 0 16 19 8 30 -13z m-1629 -52 c-13 -13 -26 -3 -16 12 3 6 11 8 17 5 6 -4 6
-10 -1 -17z m809 9 c0 -2 -9 -25 -19 -49 -16 -37 -25 -46 -53 -52 -34 -8 -290
-77 -343 -94 -147 -46 -341 -131 -403 -178 -19 -14 -37 -21 -41 -17 -4 5 -20
45 -35 89 -16 44 -39 104 -52 133 -13 29 -24 56 -24 60 0 4 32 18 70 31 65 22
76 23 133 13 69 -13 90 -5 69 28 -12 19 -9 20 98 20 79 0 110 -3 110 -12 0 -8
3 -9 10 -2 7 7 30 8 68 2 31 -5 82 -7 112 -5 150 13 208 20 240 27 42 10 60
11 60 6z m-931 -72 c-30 -17 -52 -18 -47 -2 5 14 48 28 62 20 5 -3 -2 -11 -15
-18z m198 20 c-3 -3 -12 -4 -19 -1 -8 3 -5 6 6 6 11 1 17 -2 13 -5z m79 -643
c54 -5 168 -7 252 -6 173 3 159 12 139 -93 l-12 -64 -100 -32 c-161 -53 -400
-162 -432 -198 -24 -27 -50 -22 -57 10 -9 35 -72 194 -102 254 -13 26 -20 49
-16 51 4 2 26 9 49 17 25 7 57 29 78 51 32 35 37 37 68 28 19 -5 79 -13 133
-18z m3283 -436 c15 -15 7 -85 -10 -85 -5 0 -14 -10 -19 -22 -5 -13 -9 -17 -9
-10 -1 6 -10 12 -21 12 -12 0 -28 13 -40 32 -17 28 -17 34 -5 59 21 40 70 46
104 14z m-569 -221 c0 -8 -12 -27 -27 -42 -15 -15 -28 -31 -28 -37 0 -11 -54
-39 -61 -32 -7 7 18 57 25 52 10 -6 24 7 51 47 24 36 40 41 40 12z m-2576 -59
c153 -2 280 -5 281 -7 2 -2 -4 -35 -13 -72 -14 -58 -21 -71 -42 -77 -14 -4
-52 -15 -85 -24 -67 -19 -155 -50 -200 -70 -125 -56 -196 -91 -234 -117 -47
-32 -51 -31 -71 22 -14 37 -85 193 -101 222 -17 32 -9 45 33 57 22 7 57 28 77
47 26 25 42 33 56 28 11 -3 145 -8 299 -9z m2433 -67 c-3 -8 -6 -5 -6 6 -1 11
2 17 5 13 3 -3 4 -12 1 -19z m73 -19 c-12 -21 -18 -23 -39 -10 -10 7 -8 12 10
24 27 20 43 13 29 -14z m292 5 c81 -42 268 -86 268 -63 0 4 -15 10 -32 12 -18
2 -1 5 37 6 39 0 88 4 110 7 31 5 37 4 29 -6 -7 -6 -28 -13 -49 -15 -54 -5
-56 -15 -2 -15 58 0 145 18 154 33 4 7 0 8 -11 4 -10 -4 -30 -9 -44 -12 -19
-4 -17 -1 9 9 19 7 54 23 77 35 38 19 41 20 33 4 -6 -10 -31 -61 -55 -114 -25
-53 -53 -102 -62 -110 -27 -22 -206 -15 -302 11 -101 28 -134 54 -177 144 -19
40 -35 76 -35 80 0 10 19 7 52 -10z m348 -343 c26 -25 28 -32 20 -66 -10 -45
-23 -55 -72 -55 -71 0 -102 67 -57 124 28 36 72 35 109 -3z m-579 -240 c-12
-16 -33 -55 -47 -85 -27 -60 -30 -62 -56 -42 -23 17 -23 29 2 51 11 10 39 47
62 82 38 57 44 62 52 44 6 -14 3 -28 -13 -50z m796 -183 c-78 -165 -90 -178
-158 -178 -79 0 -278 38 -336 65 -46 21 -56 30 -77 78 -23 53 -42 117 -34 117
3 0 38 -12 79 -26 58 -21 100 -27 195 -31 142 -7 214 10 324 75 36 22 66 38
68 37 2 -2 -26 -63 -61 -137z m-2107 -455 l-1 -228 -80 -60 c-45 -33 -90 -68
-102 -77 -106 -83 -429 -318 -437 -318 -6 0 -10 79 -10 220 0 198 2 222 18
234 27 23 607 456 610 456 1 0 2 -102 2 -227z m620 101 c74 -55 206 -153 293
-217 l157 -117 0 -226 c0 -124 -4 -224 -9 -222 -4 2 -144 104 -309 228 l-301
225 -1 228 c0 217 1 227 18 215 10 -7 78 -58 152 -114z m1284 33 c13 -36 -19
-81 -61 -85 -83 -8 -116 101 -39 133 27 12 35 11 61 -4 16 -9 34 -29 39 -44z
m-582 -195 c-21 -30 -52 -101 -59 -132 -7 -36 -22 -38 -52 -6 l-22 24 33 38
c18 22 35 41 38 44 3 3 16 20 29 38 17 25 26 31 35 22 8 -8 7 -15 -2 -28z
m821 -119 c-4 -10 -15 -31 -24 -48 -10 -16 -30 -61 -44 -98 -37 -92 -56 -102
-190 -94 -131 9 -268 45 -313 83 -27 24 -88 141 -78 151 2 2 34 -9 72 -24 64
-26 79 -28 219 -28 138 0 156 2 230 28 44 15 87 32 95 37 24 16 40 12 33 -7z
m-264 -334 c32 -30 26 -94 -10 -122 -24 -17 -31 -18 -63 -7 -40 13 -56 35 -56
76 0 64 81 97 129 53z"/>
<path d="M3967 2733 c-4 -3 -7 -15 -7 -25 0 -18 1 -18 17 -3 9 10 26 15 40 12
19 -3 21 -2 12 9 -12 15 -51 19 -62 7z"/>
<path d="M4025 2679 c-4 -6 -19 -7 -36 -4 -18 4 -29 3 -29 -5 0 -27 73 -23 84
5 6 17 -9 21 -19 4z"/>
<path d="M3379 2423 c-13 -15 -12 -15 11 -3 34 17 36 20 18 20 -9 0 -22 -7
-29 -17z"/>
<path d="M3908 3463 c17 -2 47 -2 65 0 17 2 3 4 -33 4 -36 0 -50 -2 -32 -4z"/>
<path d="M4108 3453 c7 -3 16 -2 19 1 4 3 -2 6 -13 5 -11 0 -14 -3 -6 -6z"/>
<path d="M3798 3443 c7 -3 16 -2 19 1 4 3 -2 6 -13 5 -11 0 -14 -3 -6 -6z"/>
<path d="M3707 3413 c-16 -8 -27 -17 -25 -19 7 -6 68 19 68 28 0 11 -10 9 -43
-9z"/>
<path d="M4250 3402 c0 -5 7 -13 16 -16 10 -4 14 -1 12 6 -5 15 -28 23 -28 10z"/>
<path d="M4312 3363 c12 -14 15 -36 12 -93 -2 -68 -2 -71 7 -30 19 92 19 119
-1 130 -28 15 -35 12 -18 -7z"/>
<path d="M3885 3220 c-3 -11 -14 -20 -23 -20 -16 -1 -16 -2 1 -14 9 -7 17 -21
17 -30 0 -9 6 -16 14 -16 19 0 30 17 15 22 -9 3 -8 10 1 25 14 21 8 53 -9 53
-5 0 -13 -9 -16 -20z"/>
<path d="M4067 3234 c-14 -14 -7 -35 11 -32 9 2 17 10 17 17 0 16 -18 25 -28
15z"/>
<path d="M3742 3186 c-7 -17 -7 -27 1 -35 18 -18 27 -13 27 18 0 38 -14 47
-28 17z"/>
<path d="M3793 3145 c-1 -39 2 -63 8 -60 5 4 7 11 3 16 -3 5 0 17 8 26 18 22
17 83 -2 83 -12 0 -15 -15 -17 -65z"/>
<path d="M4100 3191 c0 -12 -9 -21 -24 -25 -17 -4 -27 -16 -32 -38 l-7 -33
-13 30 c-12 27 -13 28 -14 7 0 -19 13 -56 25 -70 8 -10 55 33 55 50 0 32 25
14 28 -20 2 -20 9 -32 18 -32 12 0 14 11 9 63 -4 34 -8 68 -10 75 -7 19 -35
14 -35 -7z"/>
</g>
</svg>
